# xmcd
#
# Track frame offsets: 
#        150
#        13757
#        40452
#        61835
#        78257
#        103080
#        112302
#        130297
#        145847
#        173447
#        186750
#        201415
#        215502
#        233382
#        247712
#
# Disc length: 3531 seconds
#
# Revision: 3
# Processed by: cddbd v1.5.2PL0 Copyright (c) Steve Scherf et al.
# Submitted via: ExactAudioCopy v0.99pb4
#
DISCID=cb0dc90f
DTITLE=Bobby Charles - Last Train To Memphis
DYEAR=2004
DGENRE=Blues
TTITLE0=Last Train To Memphis
TTITLE1=The Legend of Jolie Blonde
TTITLE2=I Spent All My Money Loving You
TTITLE3=String Of Hearts
TTITLE4=I Wonder
TTITLE5=Everyday
TTITLE6=Don't Make A Fool Of Yourself
TTITLE7=Homesick Blues
TTITLE8=Forever And Always
TTITLE9=The Sky Isn't Blue Anymore
TTITLE10=Full Moon On The Bayou
TTITLE11=What Are We Doing
TTITLE12=Sing
TTITLE13=Goin' Fishin'
TTITLE14=See You Later Alligator
EXTD=\n\n
EXTT0=
EXTT1=
EXTT2=
EXTT3=
EXTT4=
EXTT5=
EXTT6=
EXTT7=
EXTT8=
EXTT9=
EXTT10=
EXTT11=
EXTT12=
EXTT13=
EXTT14=
PLAYORDER=
